<?xml version="1.0" encoding="utf-8"?>
<!-- Generator: Adobe Illustrator 25.3.1, SVG Export Plug-In . SVG Version: 6.00 Build 0)  -->
<svg version="1.1" id="_x2014_ÎÓÈ_x5F_1" xmlns="http://www.w3.org/2000/svg" xmlns:xlink="http://www.w3.org/1999/xlink"
	 x="0px" y="0px" viewBox="0 0 1200 1200" style="enable-background:new 0 0 1200 1200;" xml:space="preserve">
<style type="text/css">
	.st0{fill:#333333;}
</style>
<g>
	<path class="st0" d="M1107.11,564.47H988.1c-4.04,0-7.33,3.29-7.33,7.35c0,4.04,3.29,7.33,7.33,7.33h52.84
		c-0.62,1.12-0.95,2.37-0.95,3.65v9.35l-65.56-3.52v-50.29c0-4.2-3.42-7.62-7.62-7.62h-18.97c-4.2,0-7.62,3.42-7.62,7.62v48.45
		l-13.85-0.74c-2.5-65.58-23.03-128.9-59.75-183.9l-0.24-0.37c-0.59-0.89-1.8-1.12-2.67-0.53c-0.88,0.59-1.12,1.78-0.53,2.67
		l0.24,0.36c36.27,54.32,56.57,116.82,59.1,181.57l-72.13-3.88c-3.11-49.14-19.09-96.45-46.71-137.8l-0.2-0.3
		c-0.3-0.44-0.9-0.55-1.34-0.26c-0.44,0.3-0.55,0.9-0.26,1.34l0.2,0.29c27.38,41,43.25,87.91,46.37,136.63l-124.5-6.37
		c-14.63-12.63-41.3-23.41-77.27-31.2v-7.05l202.01-191.4c4.45-4.22,7.05-9.86,7.13-15.48c0.06-4.46-1.52-8.53-4.44-11.46
		c-2.92-2.92-7.02-4.51-11.46-4.44c-5.62,0.08-11.26,2.67-15.48,7.13L639.41,516.9c-4.02-3.61-9.18-5.59-14.57-5.59h-71.15
		c-11.33,0-20.78,8.74-21.74,19.98c-6.01-0.21-11.92-0.36-17.57-0.44L316.13,321.6c-4.22-4.45-9.86-7.05-15.48-7.13
		c-4.49-0.05-8.53,1.52-11.46,4.44c-2.92,2.92-4.5,6.99-4.44,11.46c0.08,5.62,2.67,11.26,7.13,15.48l195.23,184.97
		c-86.42,1.2-155.71,13.79-193.25,33.29c5.82-45.28,22.57-88.21,49.32-125.79c0.31-0.43,0.21-1.03-0.23-1.34
		c-0.43-0.3-1.03-0.2-1.34,0.23c-27.2,38.21-44.13,81.93-49.83,128.01c-18.46,10.04-28.67,21.83-28.67,34.79
		c0,12.96,10.2,24.75,28.65,34.78c5.35,43.11,20.68,84.43,45.16,121.1l0.88-0.41l0.7-0.69c-24.04-36-39.21-76.56-44.67-118.89
		c37.53,19.5,106.84,32.1,193.28,33.3L291.89,854.16c-4.45,4.22-7.05,9.86-7.13,15.48c-0.06,4.46,1.52,8.53,4.44,11.46
		c2.92,2.92,6.98,4.49,11.46,4.44c5.62-0.08,11.26-2.67,15.48-7.13l198.21-209.2c5.72-0.06,11.64-0.16,17.62-0.3
		c1.04,11.14,10.49,19.79,21.73,19.79h71.15c5.39,0,10.54-1.98,14.57-5.59l185.04,195.3c4.22,4.45,9.86,7.05,15.48,7.13
		c0.08,0,0.16,0,0.25,0c4.37,0,8.34-1.57,11.21-4.44c2.92-2.92,4.5-6.99,4.44-11.46c-0.08-5.62-2.67-11.26-7.13-15.47l-202.01-191.4
		v-4.11c40.26-7.48,67.43-18.92,80.76-34l120.98-6.51c-3.35,51.86-20.85,101.2-51.13,143.69c-0.31,0.44-0.21,1.03,0.22,1.34
		c0.17,0.12,0.36,0.18,0.56,0.18c0.3,0,0.6-0.14,0.78-0.4c30.54-42.85,48.17-92.62,51.51-144.92l72.12-3.88
		c-2.63,65.02-22.91,127.58-59.08,181.74c-0.59,0.88-0.35,2.08,0.53,2.67c0.33,0.22,0.7,0.32,1.07,0.32c0.62,0,1.23-0.3,1.6-0.86
		c36.63-54.86,57.15-118.23,59.74-184.09l13.87-0.75v48.45c0,4.2,3.42,7.62,7.62,7.62h18.97c4.2,0,7.62-3.42,7.62-7.62v-50.29
		l77.95-4.19c2.18-0.12,3.43-5.68,3.43-7.18c0-0.77-0.59-17.2-0.59-17.2c0-1.28-0.33-2.53-0.95-3.65h52.84
		c4.04,0,7.33-3.29,7.33-7.35C1114.44,567.76,1111.15,564.47,1107.11,564.47z"/>
	<path class="st0" d="M414.45,366.61l-0.23,0.15c-0.44,0.3-0.56,0.89-0.26,1.33c0.3,0.45,0.9,0.56,1.33,0.26l0.22-0.15
		c46-30.72,99.43-46.95,154.52-46.95c58.46,0,114.43,17.84,161.88,51.58c0.17,0.12,0.36,0.18,0.56,0.18c0.3,0,0.6-0.14,0.79-0.4
		c0.31-0.43,0.21-1.03-0.23-1.34c-47.77-33.98-104.13-51.94-162.99-51.94C514.57,319.33,460.77,335.68,414.45,366.61z"/>
	<path class="st0" d="M726.14,833.38l-0.47-0.84l-0.6-0.75c-46,30.72-99.43,46.96-154.52,46.96c-58.52,0-114.54-17.87-162.02-51.69
		c-0.43-0.31-1.03-0.21-1.34,0.23c-0.31,0.44-0.21,1.04,0.23,1.34c47.81,34.04,104.22,52.04,163.14,52.04
		C626.02,880.67,679.82,864.32,726.14,833.38z"/>
	<path class="st0" d="M373.37,307.23c0.42,0,0.85-0.12,1.2-0.35c58.18-38.85,125.75-59.38,195.4-59.38
		c70.08,0,137.84,20.47,195.96,59.21c0.88,0.59,2.07,0.35,2.67-0.53c0.59-0.88,0.35-2.08-0.53-2.67
		c-58.75-39.16-127.25-59.85-198.1-59.85c-70.42,0-138.73,20.76-197.52,60.01c-0.01,0.01-0.29,0.2-0.3,0.2
		c-0.88,0.6-0.97,1.7-0.38,2.58C372.12,306.97,372.74,307.23,373.37,307.23z"/>
	<path class="st0" d="M277.06,404.27c0.59-0.88,0.35-2.08-0.53-2.67c-0.89-0.59-2.08-0.35-2.67,0.53
		c-39.2,58.77-59.91,127.31-59.91,198.19c0,70.42,20.76,138.73,60.06,197.59l1.68-0.95l1.48-1.24
		c-38.85-58.17-59.38-125.74-59.38-195.4C217.79,530.21,238.28,462.41,277.06,404.27z"/>
	<path class="st0" d="M570.62,952.5c-70.16,0-137.99-20.51-196.14-59.32c-0.88-0.59-2.08-0.35-2.67,0.53
		c-0.59,0.88-0.35,2.08,0.53,2.67c58.79,39.23,127.35,59.97,198.27,59.97c70.42,0,138.73-20.76,197.57-60.04l-2.16-3.18
		C707.85,931.97,640.28,952.5,570.62,952.5z"/>
</g>
</svg>
